<svg width="1166" height="989" viewBox="0 0 1166 989" fill="none" xmlns="http://www.w3.org/2000/svg">
<path fill-rule="evenodd" clip-rule="evenodd" d="M1160.76 659.088L1116.37 647.479C1083.57 638.9 980.573 654.933 885.338 708.076C802.261 754.435 675.552 833.352 589.84 857.356C504.129 881.36 451.501 841.265 398.576 800.4C345.341 760.146 293.023 719.44 239.788 679.186C186.553 638.933 134.235 598.226 63.3696 592.856C-7.80466 588.097 -95.6923 617.767 -140.553 633.056L-184.496 647.891L-59.849 401.265L-27.6586 409.685C5.13918 418.263 69.5201 435.103 134.508 452.101C199.497 469.099 263.878 485.939 328.866 502.937C393.854 519.936 458.235 536.775 523.223 553.773C588.212 570.772 576.06 567.593 641.048 584.592C706.037 601.59 725.773 545.314 869.019 582.781C903.721 591.858 1083.57 638.9 1116.37 647.479L1160.76 659.088Z" fill="#7177F1" fill-opacity="0.3"/>
<path fill-rule="evenodd" clip-rule="evenodd" d="M1138.09 643.017L1105.9 634.597C1073.1 626.019 1008.72 609.179 916.792 645.491C824.547 682.423 705.965 772.825 619.986 797.359C534.007 821.893 481.531 781.498 428.762 740.324C375.679 699.77 323.517 658.755 270.434 618.201C217.351 577.646 165.188 536.631 94.2475 531.411C22.9933 526.81 -65.1983 557.082 -110.215 572.679L-154.311 587.816L-28.0513 338L4.13923 346.42C36.937 354.998 101.318 371.838 166.306 388.836C231.294 405.835 295.675 422.674 360.664 439.672C425.652 456.671 490.033 473.51 555.021 490.509C620.009 507.507 684.39 524.346 749.378 541.345C814.367 558.343 878.748 575.183 943.736 592.181C1008.72 609.179 1073.1 626.019 1105.9 634.597L1138.09 643.017Z" fill="#9297EF"/>
<path fill-rule="evenodd" clip-rule="evenodd" d="M927.091 623.443L885.277 612.506C854.381 604.425 794.606 545.817 772.557 461.997C753.322 388.877 731.104 271.007 690.606 213.992C650.108 156.976 577.705 164.368 504.421 172.222C431.446 179.464 358.735 187.467 285.76 194.71C212.785 201.952 140.074 209.955 84.7289 182.315C29.6936 154.062 -7.4488 91.6884 -26.2829 59.74L-44.854 28.5532L-169.501 275.18L-139.177 283.111C-108.28 291.193 -47.6311 307.056 13.5901 323.069C74.8115 339.082 135.461 354.946 196.682 370.959C257.903 386.972 318.552 402.835 379.774 418.848C440.995 434.861 429.548 431.867 490.769 447.88C551.99 463.893 517.32 516.263 652.263 551.559C684.954 560.11 854.381 604.425 885.277 612.506L927.091 623.443Z" fill="#7177F1" fill-opacity="0.3"/>
<path fill-rule="evenodd" clip-rule="evenodd" d="M899.622 625.381L869.298 617.449C838.401 609.368 777.752 593.504 743.474 524.181C709.51 454.237 703.061 331.133 662.831 273.587C622.601 216.042 550.046 223.734 476.606 231.897C403.48 239.44 330.612 247.752 257.485 255.295C184.359 262.837 111.491 271.15 56.2222 243.359C1.26692 214.948 -35.5715 151.973 -54.2496 119.716L-72.6688 88.2283L-198.928 338.044L-168.604 345.975C-137.707 354.057 -77.0577 369.92 -15.8364 385.933C45.3848 401.946 106.034 417.81 167.255 433.823C228.477 449.836 289.126 465.699 350.347 481.712C411.568 497.725 472.217 513.589 533.439 529.602C594.66 545.615 655.309 561.478 716.53 577.491C777.752 593.504 838.401 609.368 869.298 617.449L899.622 625.381Z" fill="#9297EF"/>
</svg>
